<?xml version="1.0" encoding="UTF-8" standalone="no"?>
<!DOCTYPE svg PUBLIC "-//W3C//DTD SVG 1.1//EN" "http://www.w3.org/Graphics/SVG/1.1/DTD/svg11.dtd">
<svg width="100%" height="100%" viewBox="0 0 864 864" version="1.1" xmlns="http://www.w3.org/2000/svg" xmlns:xlink="http://www.w3.org/1999/xlink" xml:space="preserve" xmlns:serif="http://www.serif.com/" style="fill-rule:evenodd;clip-rule:evenodd;stroke-linejoin:round;stroke-miterlimit:2;">
    <g transform="matrix(4.320014,0,0,4.320014,-3438.728318,-3438.729709)">
        <path d="M975.592,916.147C975.573,915.868 975.553,915.59 975.529,915.309C975.406,913.669 975.236,912.044 975.017,910.43C974.998,910.296 974.984,910.163 974.966,910.031C974.736,908.414 974.472,906.806 974.145,905.219C964.21,853.963 912.845,805.531 858.206,796.062C856.486,795.764 854.76,796.552 853.858,798.046C852.957,799.541 853.064,801.436 854.13,802.817C868.721,821.728 856.339,848.83 838.693,865.848C838.696,865.85 838.712,865.853 838.712,865.853C824.799,880.213 816.219,899.775 816.219,921.351C816.219,955.257 837.374,984.212 867.203,995.761C868.649,996.321 870.292,995.866 871.245,994.643C872.198,993.42 872.239,991.714 871.342,990.449C866.174,983.17 862.255,973.621 862.255,961.402C862.255,920.088 895.999,893.876 895.999,893.876C895.999,893.876 929.744,920.087 929.744,961.402C929.744,973.621 925.824,983.17 920.656,990.449C919.758,991.715 919.796,993.42 920.75,994.644C921.704,995.868 923.348,996.322 924.795,995.761C954.623,984.212 975.779,955.256 975.779,921.351C975.78,919.6 975.703,917.87 975.592,916.147Z" style="fill-rule:nonzero;"/>
    </g>
</svg>
